<!-- 1780246335 --><svg width="500" height="320" viewBox="0 0 500 320" xmlns="http://www.w3.org/2000/svg" xmlns:xlink="http://www.w3.org/1999/xlink"><rect width="500" height="320" rx="10" fill="#111"/><g><rect x="16" y="20" width="40" height="40" rx="4" fill="#1a1a2e"/><text x="36" y="45" font-family="Segoe UI,sans-serif" font-size="14" fill="#555" text-anchor="middle">1</text><text x="68" y="36" font-family="Segoe UI,sans-serif" font-size="13" font-weight="500" fill="#e8e8e8">Mr.Saxobeat</text><text x="68" y="52" font-family="Segoe UI,sans-serif" font-size="11" fill="#888">Zhiro</text></g><g><rect x="16" y="76" width="40" height="40" rx="4" fill="#16213e"/><text x="36" y="101" font-family="Segoe UI,sans-serif" font-size="14" fill="#555" text-anchor="middle">2</text><text x="68" y="92" font-family="Segoe UI,sans-serif" font-size="13" font-weight="500" fill="#e8e8e8">Рваные джинсы</text><text x="68" y="108" font-family="Segoe UI,sans-serif" font-size="11" fill="#888">Элджей</text></g><g><rect x="16" y="132" width="40" height="40" rx="4" fill="#0f3460"/><text x="36" y="157" font-family="Segoe UI,sans-serif" font-size="14" fill="#555" text-anchor="middle">3</text><text x="68" y="148" font-family="Segoe UI,sans-serif" font-size="13" font-weight="500" fill="#e8e8e8">nuts [ft. lil skil] (prod. w...</text><text x="68" y="164" font-family="Segoe UI,sans-serif" font-size="11" fill="#888">☆LiL PEEP☆</text></g><g><rect x="16" y="188" width="40" height="40" rx="4" fill="#533483"/><text x="36" y="213" font-family="Segoe UI,sans-serif" font-size="14" fill="#555" text-anchor="middle">4</text><text x="68" y="204" font-family="Segoe UI,sans-serif" font-size="13" font-weight="500" fill="#e8e8e8">Princess x The Blonde (Feng ...</text><text x="68" y="220" font-family="Segoe UI,sans-serif" font-size="11" fill="#888">Ryannz</text></g><g><rect x="16" y="244" width="40" height="40" rx="4" fill="#2b2d42"/><text x="36" y="269" font-family="Segoe UI,sans-serif" font-size="14" fill="#555" text-anchor="middle">5</text><text x="68" y="260" font-family="Segoe UI,sans-serif" font-size="13" font-weight="500" fill="#e8e8e8">Yeat - Headlock (Leacked)</text><text x="68" y="276" font-family="Segoe UI,sans-serif" font-size="11" fill="#888">prettiyarik</text></g></svg>